<?xml version="1.0" encoding="UTF-8" standalone="no"?>
<svg
   xmlns:dc="http://purl.org/dc/elements/1.1/"
   xmlns:cc="http://creativecommons.org/ns#"
   xmlns:rdf="http://www.w3.org/1999/02/22-rdf-syntax-ns#"
   xmlns:svg="http://www.w3.org/2000/svg"
   xmlns="http://www.w3.org/2000/svg"
   viewBox="0 0 815.57599 650.09601"
   height="650.09601"
   width="815.57599"
   xml:space="preserve"
   id="svg2"
   version="1.1"><metadata
     id="metadata8"><rdf:RDF><cc:Work
         rdf:about=""><dc:format>image/svg+xml</dc:format><dc:type
           rdf:resource="http://purl.org/dc/dcmitype/StillImage" /></cc:Work></rdf:RDF></metadata><defs
     id="defs6"><clipPath
       id="clipPath34"
       clipPathUnits="userSpaceOnUse"><path
         id="path32"
         d="M 0,487.572 H 611.682 V 0 H 0 Z" /></clipPath></defs><g
     transform="matrix(1.3333333,0,0,-1.3333333,0,650.096)"
     id="g10"><path
       id="path12"
       style="fill:#fff;fill-opacity:1;fill-rule:nonzero;stroke:none"
       d="m 115.968,109.072 h -1.295 V 368.03 h 1.295 z" /><path
       id="path14"
       style="fill:#fff;fill-opacity:1;fill-rule:nonzero;stroke:none"
       d="m 497.009,102.072 h -1.295 v 284.853 h 1.295 z" /><path
       id="path16"
       style="fill:#fff;fill-opacity:1;fill-rule:nonzero;stroke:none"
       d="m 377.648,75.464 h -1.295 v 336.645 h 1.295 z" /><path
       id="path18"
       style="fill:#fff;fill-opacity:1;fill-rule:nonzero;stroke:none"
       d="m 255.505,75.464 h -1.295 v 310.749 h 1.295 z" /><g
       transform="translate(355.9713,202.7037)"
       id="g20"><path
         id="path22"
         style="fill:#fff;fill-opacity:1;fill-rule:nonzero;stroke:none"
         d="m 0,0 h -58.779 v -90.397 h -42.723 v 208.492 h 42.723 V 42.427 H 0 v 75.668 H 21.418 V -90.397 H 0 Z" /></g><g
       transform="translate(419.4606,270.4449)"
       id="g24"><path
         id="path26"
         style="fill:#fff;fill-opacity:1;fill-rule:nonzero;stroke:none"
         d="M 0,0 56.124,-114.358 H 77.548 V 94.157 H 56.124 V -24.045 L 0,94.157 H -42.848 V -114.358 H 0 Z" /></g><g
       id="g28"><g
         clip-path="url(#clipPath34)"
         id="g30"><g
           transform="translate(245.34,216.7952)"
           id="g36"><path
             id="path38"
             style="fill:#fff;fill-opacity:1;fill-rule:nonzero;stroke:none"
             d="m 0,0 -0.933,-2.045 c -6.767,-14.6 -20.094,-31.956 -45.251,-31.956 -32.895,0 -50.629,29 -50.629,56.334 0,26.779 17.634,55.246 50.345,55.246 24.251,0 39.368,-16.979 45.435,-32.845 l 0.73,-1.886 H 9.906 v 71.82 c -15.4,9.156 -34.106,15.134 -56.09,15.134 -36.695,0 -65.457,-15.812 -84.223,-38.645 V -47.29 c 18.861,-23.045 47.811,-39.001 84.773,-39.001 20.373,0 39.317,5.345 55.54,14.811 L 9.906,0 H 2.272 Z" /></g></g></g></g></svg>