<?xml version="1.0" encoding="UTF-8"?>
<!DOCTYPE svg PUBLIC "-//W3C//DTD SVG 1.1//EN" "http://www.w3.org/Graphics/SVG/1.1/DTD/svg11.dtd">
<!-- Creator: CorelDRAW X6 -->
<svg xmlns="http://www.w3.org/2000/svg" xml:space="preserve" width="8.49774in" height="6.76798in" version="1.1" style="shape-rendering:geometricPrecision; text-rendering:geometricPrecision; image-rendering:optimizeQuality; fill-rule:evenodd; clip-rule:evenodd"
viewBox="0 0 8498 6768"
 xmlns:xlink="http://www.w3.org/1999/xlink">
 <defs>
  <style type="text/css">
   <![CDATA[
    .fil0 {fill:#000;fill-rule:nonzero}
    .fil1 {fill:#000;fill-rule:nonzero}
   ]]>
  </style>
 </defs>
 <g id="__x0023_Layer_x0020_1">
  <metadata id="CorelCorpID_0Corel-Layer"/>
  <polygon class="fil0" points="92719,85847 92649,86378 92530,86378 92530,85847 "/>
  <g id="_301734408">
   <polygon class="fil1" points="1592,5221 1585,5221 1585,1623 1592,1623 "/>
   <polygon class="fil1" points="6881,5318 6874,5318 6874,1380 6881,1380 "/>
   <polygon class="fil1" points="5258,5691 5202,5691 5202,1020 5258,1020 "/>
   <polygon class="fil1" points="3547,5691 3539,5691 3539,1409 3547,1409 "/>
   <polygon class="fil1" points="4929,3944 4117,3944 4117,5205 3541,5205 3541,2294 4117,2294 4117,3363 4929,3363 4929,2294 5256,2294 5256,5205 4929,5205 "/>
   <polygon class="fil1" points="5823,3000 6595,4600 6881,4600 6881,1711 6595,1711 6595,3336 5823,1711 5252,1711 5252,4600 5823,4600 "/>
   <path class="fil1" d="M3416 3743l-35 30c-77,193 -288,443 -601,443 -453,0 -693,-403 -693,-766 0,-417 224,-799 696,-799 326,0 520,260 581,477l49 45 132 0 0 -1041c-224,-95 -494,-176 -766,-176 -525,0 -901,215 -1193,491l0 1937c253,322 697,542 1205,542 273,0 531,-64 754,-188l0 -995 -85 0 -44 0z"/>
  </g>
 </g>
</svg>
