<svg xmlns="http://www.w3.org/2000/svg" viewBox="0 0 138.54 28.08"><defs><style>.a{fill:#1f2321;}</style></defs><title>0_MENU_Logo</title><path class="a" d="M68.65,20.11a9.79,9.79,0,0,1-1.16,1,6.15,6.15,0,0,1-1,.59,6.52,6.52,0,0,1-2.67.5,6.17,6.17,0,0,1-4.92-2,8.4,8.4,0,0,1-1.75-5.69A8.11,8.11,0,0,1,58.87,9a6.2,6.2,0,0,1,4.91-2,6.78,6.78,0,0,1,2.67.5,6.21,6.21,0,0,1,1,.59,9.88,9.88,0,0,1,1.16,1l-2,2a7.09,7.09,0,0,0-1.28-1,3.06,3.06,0,0,0-1.6-.37A3.16,3.16,0,0,0,61,10.9a6.23,6.23,0,0,0-.91,3.69q0,5,3.64,5a3,3,0,0,0,1.6-.38,7.64,7.64,0,0,0,1.28-1.06Z"/><path class="a" d="M72.21,15.5a4.9,4.9,0,0,0,.93,3,3.56,3.56,0,0,0,3,1.15,4.23,4.23,0,0,0,1.91-.4,6.53,6.53,0,0,0,1.59-1.16l1.88,1.79A8.73,8.73,0,0,1,79,21.69a7.39,7.39,0,0,1-3,.54,6.36,6.36,0,0,1-5.07-1.94q-1.69-1.94-1.69-5.76a10.48,10.48,0,0,1,.44-3.16A6.89,6.89,0,0,1,70.93,9a5.46,5.46,0,0,1,2-1.5A6.37,6.37,0,0,1,75.56,7a6.52,6.52,0,0,1,2.6.5,5.49,5.49,0,0,1,2,1.44,6.52,6.52,0,0,1,1.26,2.26,9.35,9.35,0,0,1,.44,3V15.5Zm6.7-2.15a7.85,7.85,0,0,0-.25-1.46,3.92,3.92,0,0,0-.57-1.24,2.76,2.76,0,0,0-1-.86,3.29,3.29,0,0,0-1.53-.32A3.38,3.38,0,0,0,74,9.8a2.85,2.85,0,0,0-1,.86,3.52,3.52,0,0,0-.57,1.24,7.06,7.06,0,0,0-.21,1.46Z"/><path class="a" d="M96.08,14.65a15.91,15.91,0,0,1-.38,3.89,4.67,4.67,0,0,1-5,3.69,5.16,5.16,0,0,1-2.13-.38,5.36,5.36,0,0,1-1.69-1.32v7.55h-3V7.15h2.94V8.71a7.79,7.79,0,0,1,.85-.79,4.39,4.39,0,0,1,.85-.53,4.23,4.23,0,0,1,1-.31A6.13,6.13,0,0,1,90.7,7a5.46,5.46,0,0,1,3.31,1,4.72,4.72,0,0,1,1.75,2.89A12.61,12.61,0,0,1,96,12.47Q96.08,13.32,96.08,14.65Zm-3-.06a7.44,7.44,0,0,0-.72-3.81A2.62,2.62,0,0,0,90,9.65a2.57,2.57,0,0,0-2.53,1.44A4.92,4.92,0,0,0,87,12.55a14.7,14.7,0,0,0-.13,2.16,7.21,7.21,0,0,0,.72,3.72A2.62,2.62,0,0,0,90,19.55a2.57,2.57,0,0,0,2.38-1.15A7.66,7.66,0,0,0,93.11,14.59Z"/><path class="a" d="M110.24,17.85a4,4,0,0,1-1.19,3.07,4.6,4.6,0,0,1-3.31,1.13H98.37V7.15h7.14a4.75,4.75,0,0,1,3.28,1.09A3.71,3.71,0,0,1,110,11.15a3.3,3.3,0,0,1-2.09,3.2,4.09,4.09,0,0,1,1.72,1.35A3.63,3.63,0,0,1,110.24,17.85Zm-3.17-6.5a1.69,1.69,0,0,0-.57-1.37,2.46,2.46,0,0,0-1.63-.48h-3.53v3.76h3.53Q107.07,13.27,107.07,11.35Zm.23,6.29a1.94,1.94,0,0,0-.6-1.51,2.39,2.39,0,0,0-1.66-.54h-3.7v4.14H105a2.31,2.31,0,0,0,1.66-.57A2,2,0,0,0,107.3,17.64Z"/><path class="a" d="M121.87,22.05V11.8L115.5,22.05h-3V7.15h3V17.26l6.38-10.11h3v14.9Z"/><path class="a" d="M138.54,20.11a9.75,9.75,0,0,1-1.16,1,6.14,6.14,0,0,1-1,.59,6.52,6.52,0,0,1-2.67.5,6.17,6.17,0,0,1-4.92-2A8.4,8.4,0,0,1,127,14.53,8.11,8.11,0,0,1,128.75,9a6.2,6.2,0,0,1,4.91-2,6.78,6.78,0,0,1,2.67.5,6.2,6.2,0,0,1,1,.59,9.83,9.83,0,0,1,1.16,1l-2,2a7.1,7.1,0,0,0-1.28-1,3.06,3.06,0,0,0-1.6-.37,3.16,3.16,0,0,0-2.73,1.25,6.23,6.23,0,0,0-.91,3.69q0,5,3.64,5a3,3,0,0,0,1.6-.38,7.65,7.65,0,0,0,1.28-1.06Z"/><path class="a" d="M15.52,11q0,1.55,0,2.81a15.49,15.49,0,0,1-.21,2.29A7.31,7.31,0,0,1,14.68,18a6.16,6.16,0,0,1-1.21,1.67,7.81,7.81,0,0,1-2.55,1.72A8.14,8.14,0,0,1,7.76,22a8,8,0,0,1-3.14-.59,7.85,7.85,0,0,1-2.53-1.72A6.15,6.15,0,0,1,.88,18,7.7,7.7,0,0,1,.26,16.1,14.06,14.06,0,0,1,0,13.81Q0,12.55,0,11T0,8.19A14.08,14.08,0,0,1,.26,5.89,7.72,7.72,0,0,1,.88,4,6.17,6.17,0,0,1,2.09,2.31,7.86,7.86,0,0,1,4.62.59,8,8,0,0,1,7.76,0a8.14,8.14,0,0,1,3.15.59,7.82,7.82,0,0,1,2.55,1.72A6.18,6.18,0,0,1,14.68,4a7.33,7.33,0,0,1,.61,1.91,15.51,15.51,0,0,1,.21,2.29Q15.52,9.45,15.52,11Zm-3.25,0q0-1.64,0-2.72A13.44,13.44,0,0,0,12,6.46a4.5,4.5,0,0,0-.4-1.25A4.17,4.17,0,0,0,11,4.28a4.31,4.31,0,0,0-1.42-1,4.5,4.5,0,0,0-1.81-.36,4.5,4.5,0,0,0-1.81.36,4.3,4.3,0,0,0-1.42,1,4.15,4.15,0,0,0-.66.93,4.49,4.49,0,0,0-.4,1.25A13.37,13.37,0,0,0,3.3,8.28q0,1.08,0,2.72t0,2.72a13.35,13.35,0,0,0,.18,1.82,4.48,4.48,0,0,0,.4,1.25,4.14,4.14,0,0,0,.66.93,4.28,4.28,0,0,0,1.42,1A4.5,4.5,0,0,0,7.76,19a4.5,4.5,0,0,0,1.81-.36,4.3,4.3,0,0,0,1.42-1,4.15,4.15,0,0,0,.65-.93,4.5,4.5,0,0,0,.4-1.25,13.41,13.41,0,0,0,.18-1.82Q12.27,12.64,12.27,11Z"/><path class="a" d="M33.88,21.81V7.35l-5,10.54H26.45L21.33,7.35V21.81H18.08V.18h3.28l6.31,13.46L33.85.18h3.28V21.81Z"/><path class="a" d="M53.23,21.81,47.16,11.15l-3.65,4.37v6.29H40.26V.18h3.25V11.06L52.35.18h4l-7,8.48,7.75,13.15Z"/></svg>